<mxfile host="app.diagrams.net" modified="2023-08-14T18:17:36.856Z" agent="Mozilla/5.0 (Windows NT 10.0; Win64; x64) AppleWebKit/537.36 (KHTML, like Gecko) Chrome/115.0.0.0 Safari/537.36" version="21.6.8" etag="6DfD9Ulgq34yWRoMCwr5" type="github">
  <diagram name="Page-1" id="ahzcbZ59c9TmZzbkcJXZ">
    <mxGraphModel>
      <root>
        <mxCell id="0" />
        <mxCell id="1" parent="0" />
      </root>
    </mxGraphModel>
  </diagram>
</mxfile>
